Coordinates
version=1
nRows=6
nColumns=36
inDegrees=yes

Units are S.I. units (second, meters, Newtons, ...)
If the header above contains a line with 'inDegrees', this indicates whether rotational values are in degrees (yes) or radians (no).

endheader
time	pelvis_tilt	pelvis_list	pelvis_rotation	pelvis_tx	pelvis_ty	pelvis_tz	hip_flexion_r	hip_adduction_r	hip_rotation_r	knee_angle_r	knee_angle_r_beta	ankle_angle_r	subtalar_angle_r	mtp_angle_r	hip_flexion_l	hip_adduction_l	hip_rotation_l	knee_angle_l	knee_angle_l_beta	ankle_angle_l	subtalar_angle_l	mtp_angle_l	lumbar_extension	lumbar_bending	lumbar_rotation	arm_flex_r	arm_add_r	arm_rot_r	elbow_flex_r	pro_sup_r	arm_flex_l	arm_add_l	arm_rot_l	elbow_flex_l	pro_sup_l
      4.00000000	    -20.15087537	     -4.75721295	      5.65676938	      0.35337892	      0.83966545	      0.15385064	     55.88608062	    -12.25600343	     -8.11475954	     61.35065431	      1.07077092	     36.10786325	      3.64872303	     -7.49999987	     58.88070786	    -14.19730240	     -1.21736725	     61.20016708	      1.06814442	     43.71272990	      7.57830702	     -7.49999987	    -18.71584250	      2.32796296	      6.15634615	     59.20049983	    -10.68312215	     66.81662315	    126.08599777	     89.38882959	     60.68001309	     -4.95458939	     73.57834652	    124.19820292	     97.94996036
      4.01666670	    -20.68103528	     -4.77853805	      5.65285736	      0.36646231	      0.83106385	      0.14781867	     57.49112281	    -12.54346191	     -7.80269107	     63.25124418	      1.10394247	     36.94381613	      3.64114159	     -7.49999987	     60.43788135	    -14.15394619	     -1.01173418	     62.96954669	      1.09902592	     44.32881636	      7.22246792	     -7.49999987	    -19.12947425	      2.36885737	      6.14435823	     58.44393425	    -11.31608144	     68.12090484	    126.47606456	     86.87455257	     59.98236494	     -5.08260455	     75.02192017	    123.43627850	     95.35848224
      4.03333330	    -21.30177338	     -4.78870064	      5.70008576	      0.35800985	      0.81651707	      0.15080820	     59.54521322	    -12.81496476	     -7.22601399	     65.61695770	      1.14523196	     37.83526408	      3.52310327	     -7.49999987	     62.51066793	    -14.15572803	     -0.85638213	     65.25949204	      1.13899300	     44.98114198	      7.03496456	     -7.49999987	    -19.42859458	      2.22862360	      6.36781505	     58.56819966	    -11.42712493	     67.88785807	    126.64495338	     88.33094591	     60.73204615	     -4.77572885	     75.12441108	    123.25817794	     99.38313540
      4.05000000	    -21.96393157	     -4.76255745	      5.77023813	      0.35710543	      0.81232688	      0.15021410	     61.49574501	    -13.16418337	     -6.75960911	     67.72382258	      1.18200369	     38.66970240	      3.48457094	     -7.49999987	     64.53497315	    -14.07708418	     -0.70256604	     67.35500281	      1.17556657	     45.54771251	      6.73043113	     -7.49999987	    -19.71642051	      2.15962254	      6.20188798	     58.47930105	    -11.39484826	     67.87380510	    126.92520073	     87.15430076	     60.74419857	     -4.69918778	     75.53102876	    123.24347424	     98.04219583
      4.06666670	    -22.31671445	     -4.83661363	      5.79551867	      0.35653262	      0.80915553	      0.15084241	     62.85003880	    -13.35041122	     -6.50096211	     69.39165722	      1.21111289	     39.14359161	      3.31632161	     -7.49999987	     66.00562426	    -14.16329723	     -0.52000973	     69.03985656	      1.20497281	     46.05590956	      6.59751864	     -7.49999987	    -20.70840154	      2.26134032	      6.38471768	     58.30959327	    -11.96201963	     68.60186186	    125.44214481	     84.90870193	     60.88107740	     -5.29986964	     76.29207928	    121.71031625	     94.36100293
      4.08333330	    -22.56831529	     -4.84057592	      5.87840173	      0.35574298	      0.79976076	      0.15014632	     64.05100528	    -13.64632753	     -6.25684318	     71.01625662	      1.23946750	     39.73680061	      3.31891112	     -7.49999987	     67.27038092	    -14.10478830	     -0.33042249	     70.66313300	      1.23330433	     46.43730815	      6.28194918	     -7.49999987	    -21.44719152	      2.22081609	      6.63688859	     58.47532002	    -12.23873346	     68.91943956	    125.64392809	     85.16644493	     61.30620504	     -4.91836773	     75.90843194	    121.35515731	     94.88507960
